<?xml version="1.0" encoding="iso-8859-1"?>
<!-- Generator: Adobe Illustrator 21.0.0, SVG Export Plug-In . SVG Version: 6.00 Build 0)  -->
<svg xmlns="http://www.w3.org/2000/svg" xmlns:xlink="http://www.w3.org/1999/xlink" version="1.1" id="Capa_1" x="0px" y="0px" viewBox="0 0 512 512" style="enable-background:new 0 0 512 512;" xml:space="preserve" width="512" height="512">
<g>
	<g>
		<g>
			<path style="fill:#FF641A;" d="M271,93c0,66.27-15,163-15,163L89,351L48.15,136l-4.76-22.73c9.17-13.61,19.73-26.43,31.59-38.29     C123.33,26.63,187.62,0,256,0c5.77,0,11.52,0.19,17.23,0.57L256,16C256,16,271,26.73,271,93z"/>
		</g>
	</g>
</g>
<path style="fill:#FFDA2D;" d="M256,256l-15,195L48.15,376l-22.13-7.26C8.99,334.1,0,295.74,0,256  c0-51.61,15.17-100.88,43.39-142.73L48.15,136c0,0,16.53,78.82,73.93,111.96C179.47,281.1,256,256,256,256z"/>
<path style="fill:#4BB9EC;" d="M422,380L256,496l-17.23,15.43c-61.9-4.08-119.52-30.14-163.79-74.41  c-20.26-20.26-36.69-43.3-48.96-68.28L48.15,376c0,0,76.53,25.1,133.93-8.04C239.47,334.82,256,256,256,256L422,380z"/>
<path style="fill:#537983;" d="M468.61,398.72v0.01c-9.17,13.61-19.73,26.43-31.59,38.29C388.67,485.37,324.38,512,256,512  c-5.77,0-11.52-0.19-17.23-0.57L256,496c0,0,60-53.73,60-120s-60-120-60-120l189-86l18.85,206L468.61,398.72z"/>
<polygon style="fill:#0095FF;" points="422,380 256,256 256,496 "/>
<path style="fill:#FDBF00;" d="M256,496v16c68.38,0,132.67-26.63,181.02-74.98c11.86-11.86,22.42-24.68,31.59-38.29v-0.01  L463.85,376L445,170l-189,86c0,0,60,53.73,60,120S256,496,256,496z"/>
<path style="fill:#5BC980;" d="M512,256c0,51.61-15.17,100.87-43.39,142.72L463.85,376c0,0-16.53-78.82-73.93-111.96  C332.53,230.9,256,256,256,256l4-174l203.85,54l22.13,7.26C503.01,177.9,512,216.26,512,256z"/>
<g>
	<g>
		<path style="fill:#FDBF00;" d="M273.23,0.57C267.52,0.19,261.77,0,256,0v16L273.23,0.57z"/>
		<path style="fill:#FDBF00;" d="M271,93c0-66.27-15-77-15-77v240C256,256,271,159.27,271,93z"/>
	</g>
</g>
<path style="fill:#FFDA2D;" d="M485.98,143.26L463.85,136c0,0-76.53-25.1-133.93,8.04C272.53,177.18,256,256,256,256  s-60-53.73-60-120s60-120,60-120l17.23-15.43c61.9,4.08,119.52,30.14,163.79,74.41C457.28,95.24,473.71,118.28,485.98,143.26z"/>
<path style="fill:#FDBF00;" d="M329.92,144.04c57.4-33.14,133.93-8.04,133.93-8.04l22.13,7.26c-12.27-24.98-28.7-48.02-48.96-68.28  C392.75,30.71,335.13,4.65,273.23,0.57L256,16v240C256,256,272.53,177.18,329.92,144.04z"/>















</svg>
